<mxfile host="app.diagrams.net" modified="2021-10-24T08:57:25.502Z" agent="5.0 (Windows NT 10.0; Win64; x64) AppleWebKit/537.36 (KHTML, like Gecko) Chrome/94.0.4606.81 Safari/537.36 Edg/94.0.992.50" etag="2yzzgRQjd6eNxkJ7NTLh" version="15.5.8" type="github">
  <diagram id="IbEJ1D551MVXqkJzMIXQ" name="Page-1">
    <mxGraphModel dx="1117" dy="1792" grid="1" gridSize="10" guides="1" tooltips="1" connect="1" arrows="1" fold="1" page="1" pageScale="1" pageWidth="827" pageHeight="1169" math="0" shadow="0">
      <root>
        <mxCell id="0" />
        <mxCell id="1" parent="0" />
        <mxCell id="F9FG4eQkzShsE74ImcSE-19" value="" style="rounded=0;whiteSpace=wrap;html=1;fillColor=none;" parent="1" vertex="1">
          <mxGeometry x="40" y="-200" width="640" height="160" as="geometry" />
        </mxCell>
        <mxCell id="F9FG4eQkzShsE74ImcSE-20" style="edgeStyle=none;shape=link;rounded=0;orthogonalLoop=1;jettySize=auto;html=1;exitX=0.5;exitY=1;exitDx=0;exitDy=0;endArrow=none;endFill=0;" parent="1" source="F9FG4eQkzShsE74ImcSE-19" target="F9FG4eQkzShsE74ImcSE-19" edge="1">
          <mxGeometry relative="1" as="geometry" />
        </mxCell>
        <mxCell id="F9FG4eQkzShsE74ImcSE-17" value="" style="group" parent="1" vertex="1" connectable="0">
          <mxGeometry x="80" y="-160" width="610" height="360" as="geometry" />
        </mxCell>
        <mxCell id="F9FG4eQkzShsE74ImcSE-22" value="" style="rounded=0;whiteSpace=wrap;html=1;fillColor=none;" parent="F9FG4eQkzShsE74ImcSE-17" vertex="1">
          <mxGeometry x="-40" y="120" width="640" height="240" as="geometry" />
        </mxCell>
        <mxCell id="F9FG4eQkzShsE74ImcSE-1" value="&lt;h3 id=&quot;Serial%E6%94%B6%E9%9B%86%E5%99%A8&quot; style=&quot;margin: 12px 0px 8px ; padding: 0px ; font-size: 14px ; box-sizing: border-box ; list-style: inherit ; line-height: 24px ; font-family: &amp;#34;pingfang sc&amp;#34; , &amp;#34;helvetica neue&amp;#34; , &amp;#34;arial&amp;#34; , &amp;#34;hiragino sans gb&amp;#34; , &amp;#34;microsoft yahei ui&amp;#34; , &amp;#34;microsoft yahei&amp;#34; , &amp;#34;simsun&amp;#34; , sans-serif ; background-color: rgb(255 , 255 , 255)&quot;&gt;Serial&lt;/h3&gt;" style="whiteSpace=wrap;html=1;aspect=fixed;" parent="F9FG4eQkzShsE74ImcSE-17" vertex="1">
          <mxGeometry width="80" height="80" as="geometry" />
        </mxCell>
        <mxCell id="F9FG4eQkzShsE74ImcSE-2" value="&lt;h3 id=&quot;ParNew-%E6%94%B6%E9%9B%86%E5%99%A8&quot; style=&quot;margin: 16px 0px 8px ; padding: 0px ; font-size: 14px ; box-sizing: border-box ; list-style: inherit ; line-height: 24px ; font-family: &amp;#34;pingfang sc&amp;#34; , &amp;#34;helvetica neue&amp;#34; , &amp;#34;arial&amp;#34; , &amp;#34;hiragino sans gb&amp;#34; , &amp;#34;microsoft yahei ui&amp;#34; , &amp;#34;microsoft yahei&amp;#34; , &amp;#34;simsun&amp;#34; , sans-serif ; background-color: rgb(255 , 255 , 255)&quot;&gt;ParNew &lt;/h3&gt;" style="whiteSpace=wrap;html=1;aspect=fixed;" parent="F9FG4eQkzShsE74ImcSE-17" vertex="1">
          <mxGeometry x="160" width="80" height="80" as="geometry" />
        </mxCell>
        <mxCell id="F9FG4eQkzShsE74ImcSE-14" style="edgeStyle=none;rounded=0;orthogonalLoop=1;jettySize=auto;html=1;exitX=0.5;exitY=1;exitDx=0;exitDy=0;endArrow=none;endFill=0;" parent="F9FG4eQkzShsE74ImcSE-17" source="F9FG4eQkzShsE74ImcSE-3" edge="1">
          <mxGeometry relative="1" as="geometry">
            <mxPoint x="200" y="240" as="targetPoint" />
          </mxGeometry>
        </mxCell>
        <mxCell id="F9FG4eQkzShsE74ImcSE-3" value="&lt;h3 id=&quot;Parallel-Scavenge-%E6%94%B6%E9%9B%86%E5%99%A8&quot; style=&quot;margin: 16px 0px 8px ; padding: 0px ; font-size: 14px ; box-sizing: border-box ; list-style: inherit ; line-height: 24px ; font-family: &amp;#34;pingfang sc&amp;#34; , &amp;#34;helvetica neue&amp;#34; , &amp;#34;arial&amp;#34; , &amp;#34;hiragino sans gb&amp;#34; , &amp;#34;microsoft yahei ui&amp;#34; , &amp;#34;microsoft yahei&amp;#34; , &amp;#34;simsun&amp;#34; , sans-serif ; background-color: rgb(255 , 255 , 255)&quot;&gt;Parallel Scavenge &lt;/h3&gt;" style="whiteSpace=wrap;html=1;aspect=fixed;" parent="F9FG4eQkzShsE74ImcSE-17" vertex="1">
          <mxGeometry x="320" width="80" height="80" as="geometry" />
        </mxCell>
        <mxCell id="F9FG4eQkzShsE74ImcSE-4" value="&lt;h3 id=&quot;Serial%E6%94%B6%E9%9B%86%E5%99%A8&quot; style=&quot;margin: 12px 0px 8px ; padding: 0px ; font-size: 14px ; box-sizing: border-box ; list-style: inherit ; line-height: 24px ; font-family: &amp;#34;pingfang sc&amp;#34; , &amp;#34;helvetica neue&amp;#34; , &amp;#34;arial&amp;#34; , &amp;#34;hiragino sans gb&amp;#34; , &amp;#34;microsoft yahei ui&amp;#34; , &amp;#34;microsoft yahei&amp;#34; , &amp;#34;simsun&amp;#34; , sans-serif ; background-color: rgb(255 , 255 , 255)&quot;&gt;CMS&lt;/h3&gt;" style="whiteSpace=wrap;html=1;aspect=fixed;" parent="F9FG4eQkzShsE74ImcSE-17" vertex="1">
          <mxGeometry y="160" width="80" height="80" as="geometry" />
        </mxCell>
        <mxCell id="F9FG4eQkzShsE74ImcSE-7" style="edgeStyle=orthogonalEdgeStyle;rounded=0;orthogonalLoop=1;jettySize=auto;html=1;endArrow=none;endFill=0;" parent="F9FG4eQkzShsE74ImcSE-17" source="F9FG4eQkzShsE74ImcSE-1" target="F9FG4eQkzShsE74ImcSE-4" edge="1">
          <mxGeometry relative="1" as="geometry" />
        </mxCell>
        <mxCell id="F9FG4eQkzShsE74ImcSE-8" style="rounded=0;orthogonalLoop=1;jettySize=auto;html=1;entryX=0.5;entryY=0;entryDx=0;entryDy=0;exitX=0.5;exitY=1;exitDx=0;exitDy=0;exitPerimeter=0;endArrow=none;endFill=0;" parent="F9FG4eQkzShsE74ImcSE-17" source="F9FG4eQkzShsE74ImcSE-2" target="F9FG4eQkzShsE74ImcSE-4" edge="1">
          <mxGeometry relative="1" as="geometry" />
        </mxCell>
        <mxCell id="F9FG4eQkzShsE74ImcSE-5" value="&lt;h3 id=&quot;Parallel-Scavenge-%E6%94%B6%E9%9B%86%E5%99%A8&quot; style=&quot;margin: 16px 0px 8px ; padding: 0px ; font-size: 14px ; box-sizing: border-box ; list-style: inherit ; line-height: 24px ; font-family: &amp;#34;pingfang sc&amp;#34; , &amp;#34;helvetica neue&amp;#34; , &amp;#34;arial&amp;#34; , &amp;#34;hiragino sans gb&amp;#34; , &amp;#34;microsoft yahei ui&amp;#34; , &amp;#34;microsoft yahei&amp;#34; , &amp;#34;simsun&amp;#34; , sans-serif ; background-color: rgb(255 , 255 , 255)&quot;&gt;Parallel&amp;nbsp; Old&lt;/h3&gt;" style="whiteSpace=wrap;html=1;aspect=fixed;" parent="F9FG4eQkzShsE74ImcSE-17" vertex="1">
          <mxGeometry x="320" y="160" width="80" height="80" as="geometry" />
        </mxCell>
        <mxCell id="F9FG4eQkzShsE74ImcSE-9" value="" style="edgeStyle=none;rounded=0;orthogonalLoop=1;jettySize=auto;html=1;endArrow=none;endFill=0;" parent="F9FG4eQkzShsE74ImcSE-17" source="F9FG4eQkzShsE74ImcSE-3" target="F9FG4eQkzShsE74ImcSE-5" edge="1">
          <mxGeometry relative="1" as="geometry" />
        </mxCell>
        <mxCell id="F9FG4eQkzShsE74ImcSE-6" value="&lt;h3 id=&quot;Serial%E6%94%B6%E9%9B%86%E5%99%A8&quot; style=&quot;margin: 12px 0px 8px ; padding: 0px ; font-size: 14px ; box-sizing: border-box ; list-style: inherit ; line-height: 24px ; font-family: &amp;#34;pingfang sc&amp;#34; , &amp;#34;helvetica neue&amp;#34; , &amp;#34;arial&amp;#34; , &amp;#34;hiragino sans gb&amp;#34; , &amp;#34;microsoft yahei ui&amp;#34; , &amp;#34;microsoft yahei&amp;#34; , &amp;#34;simsun&amp;#34; , sans-serif ; background-color: rgb(255 , 255 , 255)&quot;&gt;Serial Old（MSC）&lt;/h3&gt;" style="whiteSpace=wrap;html=1;aspect=fixed;" parent="F9FG4eQkzShsE74ImcSE-17" vertex="1">
          <mxGeometry x="160" y="240" width="80" height="80" as="geometry" />
        </mxCell>
        <mxCell id="F9FG4eQkzShsE74ImcSE-12" style="edgeStyle=none;rounded=0;orthogonalLoop=1;jettySize=auto;html=1;exitX=0.5;exitY=1;exitDx=0;exitDy=0;entryX=0.5;entryY=0;entryDx=0;entryDy=0;endArrow=none;endFill=0;" parent="F9FG4eQkzShsE74ImcSE-17" source="F9FG4eQkzShsE74ImcSE-1" target="F9FG4eQkzShsE74ImcSE-6" edge="1">
          <mxGeometry relative="1" as="geometry" />
        </mxCell>
        <mxCell id="F9FG4eQkzShsE74ImcSE-13" style="edgeStyle=none;rounded=0;orthogonalLoop=1;jettySize=auto;html=1;endArrow=none;endFill=0;" parent="F9FG4eQkzShsE74ImcSE-17" source="F9FG4eQkzShsE74ImcSE-2" target="F9FG4eQkzShsE74ImcSE-6" edge="1">
          <mxGeometry relative="1" as="geometry" />
        </mxCell>
        <mxCell id="F9FG4eQkzShsE74ImcSE-10" style="edgeStyle=none;rounded=0;orthogonalLoop=1;jettySize=auto;html=1;entryX=0;entryY=0.5;entryDx=0;entryDy=0;exitX=0.5;exitY=1;exitDx=0;exitDy=0;endArrow=none;endFill=0;" parent="F9FG4eQkzShsE74ImcSE-17" source="F9FG4eQkzShsE74ImcSE-4" target="F9FG4eQkzShsE74ImcSE-6" edge="1">
          <mxGeometry relative="1" as="geometry" />
        </mxCell>
        <mxCell id="F9FG4eQkzShsE74ImcSE-15" value="&lt;h3 id=&quot;Parallel-Scavenge-%E6%94%B6%E9%9B%86%E5%99%A8&quot; style=&quot;margin: 16px 0px 8px ; padding: 0px ; font-size: 14px ; box-sizing: border-box ; list-style: inherit ; line-height: 24px ; font-family: &amp;#34;pingfang sc&amp;#34; , &amp;#34;helvetica neue&amp;#34; , &amp;#34;arial&amp;#34; , &amp;#34;hiragino sans gb&amp;#34; , &amp;#34;microsoft yahei ui&amp;#34; , &amp;#34;microsoft yahei&amp;#34; , &amp;#34;simsun&amp;#34; , sans-serif ; background-color: rgb(255 , 255 , 255)&quot;&gt;G1&lt;/h3&gt;" style="whiteSpace=wrap;html=1;aspect=fixed;" parent="F9FG4eQkzShsE74ImcSE-17" vertex="1">
          <mxGeometry x="480" y="80" width="80" height="80" as="geometry" />
        </mxCell>
        <mxCell id="F9FG4eQkzShsE74ImcSE-24" value="&lt;font style=&quot;font-size: 15px&quot;&gt;老年代&lt;/font&gt;" style="text;html=1;align=center;verticalAlign=middle;resizable=0;points=[];autosize=1;strokeColor=none;fillColor=none;" parent="F9FG4eQkzShsE74ImcSE-17" vertex="1">
          <mxGeometry x="490" y="310" width="60" height="20" as="geometry" />
        </mxCell>
        <mxCell id="F9FG4eQkzShsE74ImcSE-23" value="&lt;font style=&quot;font-size: 15px&quot;&gt;新生代&lt;/font&gt;" style="text;html=1;align=center;verticalAlign=middle;resizable=0;points=[];autosize=1;strokeColor=none;fillColor=none;" parent="1" vertex="1">
          <mxGeometry x="570" y="-170" width="60" height="20" as="geometry" />
        </mxCell>
        <mxCell id="F-fQVEJbsh3zWQuOM8TA-1" value="1" style="whiteSpace=wrap;html=1;aspect=fixed;" vertex="1" parent="1">
          <mxGeometry x="80" y="320" width="40" height="40" as="geometry" />
        </mxCell>
        <mxCell id="F-fQVEJbsh3zWQuOM8TA-2" value="2" style="whiteSpace=wrap;html=1;aspect=fixed;fillColor=#dae8fc;strokeColor=#6c8ebf;" vertex="1" parent="1">
          <mxGeometry x="120" y="320" width="40" height="40" as="geometry" />
        </mxCell>
        <mxCell id="F-fQVEJbsh3zWQuOM8TA-3" value="3" style="whiteSpace=wrap;html=1;aspect=fixed;" vertex="1" parent="1">
          <mxGeometry x="160" y="320" width="40" height="40" as="geometry" />
        </mxCell>
        <mxCell id="F-fQVEJbsh3zWQuOM8TA-4" value="4" style="whiteSpace=wrap;html=1;aspect=fixed;fillColor=#d5e8d4;strokeColor=#82b366;" vertex="1" parent="1">
          <mxGeometry x="200" y="320" width="40" height="40" as="geometry" />
        </mxCell>
        <mxCell id="F-fQVEJbsh3zWQuOM8TA-5" value="5" style="whiteSpace=wrap;html=1;aspect=fixed;fillColor=#fff2cc;strokeColor=#d6b656;" vertex="1" parent="1">
          <mxGeometry x="240" y="320" width="40" height="40" as="geometry" />
        </mxCell>
        <mxCell id="F-fQVEJbsh3zWQuOM8TA-6" value="6" style="whiteSpace=wrap;html=1;aspect=fixed;fillColor=#dae8fc;strokeColor=#6c8ebf;" vertex="1" parent="1">
          <mxGeometry x="280" y="320" width="40" height="40" as="geometry" />
        </mxCell>
        <mxCell id="F-fQVEJbsh3zWQuOM8TA-7" value="7" style="whiteSpace=wrap;html=1;aspect=fixed;" vertex="1" parent="1">
          <mxGeometry x="320" y="320" width="40" height="40" as="geometry" />
        </mxCell>
        <mxCell id="F-fQVEJbsh3zWQuOM8TA-8" value="8" style="whiteSpace=wrap;html=1;aspect=fixed;fillColor=#d5e8d4;strokeColor=#82b366;" vertex="1" parent="1">
          <mxGeometry x="360" y="320" width="40" height="40" as="geometry" />
        </mxCell>
        <mxCell id="F-fQVEJbsh3zWQuOM8TA-9" value="9" style="whiteSpace=wrap;html=1;aspect=fixed;fillColor=#d5e8d4;strokeColor=#82b366;" vertex="1" parent="1">
          <mxGeometry x="400" y="320" width="40" height="40" as="geometry" />
        </mxCell>
        <mxCell id="F-fQVEJbsh3zWQuOM8TA-10" value="10" style="whiteSpace=wrap;html=1;aspect=fixed;" vertex="1" parent="1">
          <mxGeometry x="40" y="360" width="40" height="40" as="geometry" />
        </mxCell>
        <mxCell id="F-fQVEJbsh3zWQuOM8TA-11" value="11" style="whiteSpace=wrap;html=1;aspect=fixed;fillColor=#dae8fc;strokeColor=#6c8ebf;" vertex="1" parent="1">
          <mxGeometry x="80" y="360" width="40" height="40" as="geometry" />
        </mxCell>
        <mxCell id="F-fQVEJbsh3zWQuOM8TA-12" value="12" style="whiteSpace=wrap;html=1;aspect=fixed;" vertex="1" parent="1">
          <mxGeometry x="120" y="360" width="40" height="40" as="geometry" />
        </mxCell>
        <mxCell id="F-fQVEJbsh3zWQuOM8TA-13" value="13" style="whiteSpace=wrap;html=1;aspect=fixed;fillColor=#dae8fc;strokeColor=#6c8ebf;" vertex="1" parent="1">
          <mxGeometry x="160" y="360" width="40" height="40" as="geometry" />
        </mxCell>
        <mxCell id="F-fQVEJbsh3zWQuOM8TA-15" value="14" style="whiteSpace=wrap;html=1;aspect=fixed;fillColor=#dae8fc;strokeColor=#6c8ebf;" vertex="1" parent="1">
          <mxGeometry x="200" y="360" width="40" height="40" as="geometry" />
        </mxCell>
        <mxCell id="F-fQVEJbsh3zWQuOM8TA-16" value="15" style="whiteSpace=wrap;html=1;aspect=fixed;fillColor=#f8cecc;strokeColor=#b85450;" vertex="1" parent="1">
          <mxGeometry x="240" y="360" width="40" height="40" as="geometry" />
        </mxCell>
        <mxCell id="F-fQVEJbsh3zWQuOM8TA-17" value="16" style="whiteSpace=wrap;html=1;aspect=fixed;fillColor=#f8cecc;strokeColor=#b85450;" vertex="1" parent="1">
          <mxGeometry x="280" y="360" width="40" height="40" as="geometry" />
        </mxCell>
        <mxCell id="F-fQVEJbsh3zWQuOM8TA-18" value="0" style="whiteSpace=wrap;html=1;aspect=fixed;fillColor=#dae8fc;strokeColor=#6c8ebf;" vertex="1" parent="1">
          <mxGeometry x="40" y="320" width="40" height="40" as="geometry" />
        </mxCell>
        <mxCell id="F-fQVEJbsh3zWQuOM8TA-19" value="17" style="whiteSpace=wrap;html=1;aspect=fixed;fillColor=#f8cecc;strokeColor=#b85450;" vertex="1" parent="1">
          <mxGeometry x="320" y="360" width="40" height="40" as="geometry" />
        </mxCell>
        <mxCell id="F-fQVEJbsh3zWQuOM8TA-20" value="18" style="whiteSpace=wrap;html=1;aspect=fixed;" vertex="1" parent="1">
          <mxGeometry x="360" y="360" width="40" height="40" as="geometry" />
        </mxCell>
        <mxCell id="F-fQVEJbsh3zWQuOM8TA-21" value="19" style="whiteSpace=wrap;html=1;aspect=fixed;" vertex="1" parent="1">
          <mxGeometry x="400" y="360" width="40" height="40" as="geometry" />
        </mxCell>
        <mxCell id="F-fQVEJbsh3zWQuOM8TA-22" value="21" style="whiteSpace=wrap;html=1;aspect=fixed;fillColor=#dae8fc;strokeColor=#6c8ebf;" vertex="1" parent="1">
          <mxGeometry x="80" y="400" width="40" height="40" as="geometry" />
        </mxCell>
        <mxCell id="F-fQVEJbsh3zWQuOM8TA-23" value="22" style="whiteSpace=wrap;html=1;aspect=fixed;fillColor=#d5e8d4;strokeColor=#82b366;" vertex="1" parent="1">
          <mxGeometry x="120" y="400" width="40" height="40" as="geometry" />
        </mxCell>
        <mxCell id="F-fQVEJbsh3zWQuOM8TA-24" value="23" style="whiteSpace=wrap;html=1;aspect=fixed;" vertex="1" parent="1">
          <mxGeometry x="160" y="400" width="40" height="40" as="geometry" />
        </mxCell>
        <mxCell id="F-fQVEJbsh3zWQuOM8TA-25" value="24" style="whiteSpace=wrap;html=1;aspect=fixed;fillColor=#d5e8d4;strokeColor=#82b366;" vertex="1" parent="1">
          <mxGeometry x="200" y="400" width="40" height="40" as="geometry" />
        </mxCell>
        <mxCell id="F-fQVEJbsh3zWQuOM8TA-26" value="25" style="whiteSpace=wrap;html=1;aspect=fixed;fillColor=#dae8fc;strokeColor=#6c8ebf;" vertex="1" parent="1">
          <mxGeometry x="240" y="400" width="40" height="40" as="geometry" />
        </mxCell>
        <mxCell id="F-fQVEJbsh3zWQuOM8TA-27" value="26" style="whiteSpace=wrap;html=1;aspect=fixed;fillColor=#fff2cc;strokeColor=#d6b656;" vertex="1" parent="1">
          <mxGeometry x="280" y="400" width="40" height="40" as="geometry" />
        </mxCell>
        <mxCell id="F-fQVEJbsh3zWQuOM8TA-28" value="27" style="whiteSpace=wrap;html=1;aspect=fixed;" vertex="1" parent="1">
          <mxGeometry x="320" y="400" width="40" height="40" as="geometry" />
        </mxCell>
        <mxCell id="F-fQVEJbsh3zWQuOM8TA-29" value="28" style="whiteSpace=wrap;html=1;aspect=fixed;fillColor=#fff2cc;strokeColor=#d6b656;" vertex="1" parent="1">
          <mxGeometry x="360" y="400" width="40" height="40" as="geometry" />
        </mxCell>
        <mxCell id="F-fQVEJbsh3zWQuOM8TA-30" value="29" style="whiteSpace=wrap;html=1;aspect=fixed;" vertex="1" parent="1">
          <mxGeometry x="400" y="400" width="40" height="40" as="geometry" />
        </mxCell>
        <mxCell id="F-fQVEJbsh3zWQuOM8TA-31" value="20" style="whiteSpace=wrap;html=1;aspect=fixed;fillColor=#fff2cc;strokeColor=#d6b656;" vertex="1" parent="1">
          <mxGeometry x="40" y="400" width="40" height="40" as="geometry" />
        </mxCell>
        <mxCell id="F-fQVEJbsh3zWQuOM8TA-42" value="31" style="whiteSpace=wrap;html=1;aspect=fixed;fillColor=#dae8fc;strokeColor=#6c8ebf;" vertex="1" parent="1">
          <mxGeometry x="80" y="440" width="40" height="40" as="geometry" />
        </mxCell>
        <mxCell id="F-fQVEJbsh3zWQuOM8TA-43" value="32" style="whiteSpace=wrap;html=1;aspect=fixed;" vertex="1" parent="1">
          <mxGeometry x="120" y="440" width="40" height="40" as="geometry" />
        </mxCell>
        <mxCell id="F-fQVEJbsh3zWQuOM8TA-44" value="33" style="whiteSpace=wrap;html=1;aspect=fixed;fillColor=#f8cecc;strokeColor=#b85450;" vertex="1" parent="1">
          <mxGeometry x="160" y="440" width="40" height="40" as="geometry" />
        </mxCell>
        <mxCell id="F-fQVEJbsh3zWQuOM8TA-45" value="34" style="whiteSpace=wrap;html=1;aspect=fixed;fillColor=#f8cecc;strokeColor=#b85450;" vertex="1" parent="1">
          <mxGeometry x="200" y="440" width="40" height="40" as="geometry" />
        </mxCell>
        <mxCell id="F-fQVEJbsh3zWQuOM8TA-46" value="35" style="whiteSpace=wrap;html=1;aspect=fixed;" vertex="1" parent="1">
          <mxGeometry x="240" y="440" width="40" height="40" as="geometry" />
        </mxCell>
        <mxCell id="F-fQVEJbsh3zWQuOM8TA-47" value="36" style="whiteSpace=wrap;html=1;aspect=fixed;fillColor=#fff2cc;strokeColor=#d6b656;" vertex="1" parent="1">
          <mxGeometry x="280" y="440" width="40" height="40" as="geometry" />
        </mxCell>
        <mxCell id="F-fQVEJbsh3zWQuOM8TA-48" value="37" style="whiteSpace=wrap;html=1;aspect=fixed;fillColor=#fff2cc;strokeColor=#d6b656;" vertex="1" parent="1">
          <mxGeometry x="320" y="440" width="40" height="40" as="geometry" />
        </mxCell>
        <mxCell id="F-fQVEJbsh3zWQuOM8TA-49" value="38" style="whiteSpace=wrap;html=1;aspect=fixed;" vertex="1" parent="1">
          <mxGeometry x="360" y="440" width="40" height="40" as="geometry" />
        </mxCell>
        <mxCell id="F-fQVEJbsh3zWQuOM8TA-50" value="39" style="whiteSpace=wrap;html=1;aspect=fixed;fillColor=#fff2cc;strokeColor=#d6b656;" vertex="1" parent="1">
          <mxGeometry x="400" y="440" width="40" height="40" as="geometry" />
        </mxCell>
        <mxCell id="F-fQVEJbsh3zWQuOM8TA-51" value="30" style="whiteSpace=wrap;html=1;aspect=fixed;" vertex="1" parent="1">
          <mxGeometry x="40" y="440" width="40" height="40" as="geometry" />
        </mxCell>
        <mxCell id="F-fQVEJbsh3zWQuOM8TA-52" value="" style="whiteSpace=wrap;html=1;aspect=fixed;fillColor=#dae8fc;strokeColor=#6c8ebf;" vertex="1" parent="1">
          <mxGeometry x="40" y="520" width="40" height="40" as="geometry" />
        </mxCell>
        <mxCell id="F-fQVEJbsh3zWQuOM8TA-53" value="" style="whiteSpace=wrap;html=1;aspect=fixed;fillColor=#d5e8d4;strokeColor=#82b366;" vertex="1" parent="1">
          <mxGeometry x="130" y="520" width="40" height="40" as="geometry" />
        </mxCell>
        <mxCell id="F-fQVEJbsh3zWQuOM8TA-54" value="" style="whiteSpace=wrap;html=1;aspect=fixed;fillColor=#ffe6cc;strokeColor=#d79b00;" vertex="1" parent="1">
          <mxGeometry x="220" y="520" width="40" height="40" as="geometry" />
        </mxCell>
        <mxCell id="F-fQVEJbsh3zWQuOM8TA-55" value="" style="whiteSpace=wrap;html=1;aspect=fixed;fillColor=#f8cecc;strokeColor=#b85450;" vertex="1" parent="1">
          <mxGeometry x="310" y="520" width="40" height="40" as="geometry" />
        </mxCell>
        <mxCell id="F-fQVEJbsh3zWQuOM8TA-56" value="新生代&lt;br&gt;Eden" style="text;html=1;align=center;verticalAlign=middle;resizable=0;points=[];autosize=1;strokeColor=none;fillColor=none;" vertex="1" parent="1">
          <mxGeometry x="35" y="570" width="50" height="30" as="geometry" />
        </mxCell>
        <mxCell id="F-fQVEJbsh3zWQuOM8TA-57" value="新生代&lt;br&gt;Survivor" style="text;html=1;align=center;verticalAlign=middle;resizable=0;points=[];autosize=1;strokeColor=none;fillColor=none;" vertex="1" parent="1">
          <mxGeometry x="120" y="570" width="60" height="30" as="geometry" />
        </mxCell>
        <mxCell id="F-fQVEJbsh3zWQuOM8TA-59" value="老年代" style="text;html=1;align=center;verticalAlign=middle;resizable=0;points=[];autosize=1;strokeColor=none;fillColor=none;" vertex="1" parent="1">
          <mxGeometry x="215" y="575" width="50" height="20" as="geometry" />
        </mxCell>
        <mxCell id="F-fQVEJbsh3zWQuOM8TA-60" value="Humongous" style="text;html=1;align=center;verticalAlign=middle;resizable=0;points=[];autosize=1;" vertex="1" parent="1">
          <mxGeometry x="290" y="575" width="80" height="20" as="geometry" />
        </mxCell>
        <mxCell id="F-fQVEJbsh3zWQuOM8TA-61" value="" style="whiteSpace=wrap;html=1;aspect=fixed;" vertex="1" parent="1">
          <mxGeometry x="400" y="520" width="40" height="40" as="geometry" />
        </mxCell>
        <mxCell id="F-fQVEJbsh3zWQuOM8TA-62" value="未分配" style="text;html=1;align=center;verticalAlign=middle;resizable=0;points=[];autosize=1;" vertex="1" parent="1">
          <mxGeometry x="395" y="575" width="50" height="20" as="geometry" />
        </mxCell>
        <mxCell id="F-fQVEJbsh3zWQuOM8TA-159" value="1" style="whiteSpace=wrap;html=1;aspect=fixed;" vertex="1" parent="1">
          <mxGeometry x="80" y="680" width="40" height="40" as="geometry" />
        </mxCell>
        <mxCell id="F-fQVEJbsh3zWQuOM8TA-160" value="2" style="whiteSpace=wrap;html=1;aspect=fixed;fillColor=#dae8fc;strokeColor=#6c8ebf;" vertex="1" parent="1">
          <mxGeometry x="120" y="680" width="40" height="40" as="geometry" />
        </mxCell>
        <mxCell id="F-fQVEJbsh3zWQuOM8TA-161" value="3" style="whiteSpace=wrap;html=1;aspect=fixed;" vertex="1" parent="1">
          <mxGeometry x="160" y="680" width="40" height="40" as="geometry" />
        </mxCell>
        <mxCell id="F-fQVEJbsh3zWQuOM8TA-162" value="4" style="whiteSpace=wrap;html=1;aspect=fixed;fillColor=#d5e8d4;strokeColor=#82b366;" vertex="1" parent="1">
          <mxGeometry x="200" y="680" width="40" height="40" as="geometry" />
        </mxCell>
        <mxCell id="F-fQVEJbsh3zWQuOM8TA-163" value="5" style="whiteSpace=wrap;html=1;aspect=fixed;fillColor=#fff2cc;strokeColor=#d6b656;" vertex="1" parent="1">
          <mxGeometry x="240" y="680" width="40" height="40" as="geometry" />
        </mxCell>
        <mxCell id="F-fQVEJbsh3zWQuOM8TA-164" value="6" style="whiteSpace=wrap;html=1;aspect=fixed;fillColor=#dae8fc;strokeColor=#6c8ebf;" vertex="1" parent="1">
          <mxGeometry x="280" y="680" width="40" height="40" as="geometry" />
        </mxCell>
        <mxCell id="F-fQVEJbsh3zWQuOM8TA-165" value="7" style="whiteSpace=wrap;html=1;aspect=fixed;" vertex="1" parent="1">
          <mxGeometry x="320" y="680" width="40" height="40" as="geometry" />
        </mxCell>
        <mxCell id="F-fQVEJbsh3zWQuOM8TA-166" value="8" style="whiteSpace=wrap;html=1;aspect=fixed;fillColor=#d5e8d4;strokeColor=#82b366;" vertex="1" parent="1">
          <mxGeometry x="360" y="680" width="40" height="40" as="geometry" />
        </mxCell>
        <mxCell id="F-fQVEJbsh3zWQuOM8TA-167" value="9" style="whiteSpace=wrap;html=1;aspect=fixed;fillColor=#d5e8d4;strokeColor=#82b366;" vertex="1" parent="1">
          <mxGeometry x="400" y="680" width="40" height="40" as="geometry" />
        </mxCell>
        <mxCell id="F-fQVEJbsh3zWQuOM8TA-168" value="10" style="whiteSpace=wrap;html=1;aspect=fixed;" vertex="1" parent="1">
          <mxGeometry x="40" y="720" width="40" height="40" as="geometry" />
        </mxCell>
        <mxCell id="F-fQVEJbsh3zWQuOM8TA-169" value="11" style="whiteSpace=wrap;html=1;aspect=fixed;fillColor=#dae8fc;strokeColor=#6c8ebf;" vertex="1" parent="1">
          <mxGeometry x="80" y="720" width="40" height="40" as="geometry" />
        </mxCell>
        <mxCell id="F-fQVEJbsh3zWQuOM8TA-170" value="12" style="whiteSpace=wrap;html=1;aspect=fixed;" vertex="1" parent="1">
          <mxGeometry x="120" y="720" width="40" height="40" as="geometry" />
        </mxCell>
        <mxCell id="F-fQVEJbsh3zWQuOM8TA-171" value="13" style="whiteSpace=wrap;html=1;aspect=fixed;fillColor=#dae8fc;strokeColor=#6c8ebf;" vertex="1" parent="1">
          <mxGeometry x="160" y="720" width="40" height="40" as="geometry" />
        </mxCell>
        <mxCell id="F-fQVEJbsh3zWQuOM8TA-172" value="14" style="whiteSpace=wrap;html=1;aspect=fixed;fillColor=#dae8fc;strokeColor=#6c8ebf;" vertex="1" parent="1">
          <mxGeometry x="200" y="720" width="40" height="40" as="geometry" />
        </mxCell>
        <mxCell id="F-fQVEJbsh3zWQuOM8TA-173" value="15" style="whiteSpace=wrap;html=1;aspect=fixed;fillColor=#f8cecc;strokeColor=#b85450;" vertex="1" parent="1">
          <mxGeometry x="240" y="720" width="40" height="40" as="geometry" />
        </mxCell>
        <mxCell id="F-fQVEJbsh3zWQuOM8TA-174" value="16" style="whiteSpace=wrap;html=1;aspect=fixed;fillColor=#f8cecc;strokeColor=#b85450;" vertex="1" parent="1">
          <mxGeometry x="280" y="720" width="40" height="40" as="geometry" />
        </mxCell>
        <mxCell id="F-fQVEJbsh3zWQuOM8TA-175" value="0" style="whiteSpace=wrap;html=1;aspect=fixed;fillColor=#dae8fc;strokeColor=#6c8ebf;" vertex="1" parent="1">
          <mxGeometry x="40" y="680" width="40" height="40" as="geometry" />
        </mxCell>
        <mxCell id="F-fQVEJbsh3zWQuOM8TA-176" value="17" style="whiteSpace=wrap;html=1;aspect=fixed;fillColor=#f8cecc;strokeColor=#b85450;" vertex="1" parent="1">
          <mxGeometry x="320" y="720" width="40" height="40" as="geometry" />
        </mxCell>
        <mxCell id="F-fQVEJbsh3zWQuOM8TA-177" value="18" style="whiteSpace=wrap;html=1;aspect=fixed;" vertex="1" parent="1">
          <mxGeometry x="360" y="720" width="40" height="40" as="geometry" />
        </mxCell>
        <mxCell id="F-fQVEJbsh3zWQuOM8TA-178" value="19" style="whiteSpace=wrap;html=1;aspect=fixed;" vertex="1" parent="1">
          <mxGeometry x="400" y="720" width="40" height="40" as="geometry" />
        </mxCell>
        <mxCell id="F-fQVEJbsh3zWQuOM8TA-179" value="21" style="whiteSpace=wrap;html=1;aspect=fixed;fillColor=#dae8fc;strokeColor=#6c8ebf;" vertex="1" parent="1">
          <mxGeometry x="80" y="760" width="40" height="40" as="geometry" />
        </mxCell>
        <mxCell id="F-fQVEJbsh3zWQuOM8TA-180" value="22" style="whiteSpace=wrap;html=1;aspect=fixed;fillColor=#d5e8d4;strokeColor=#82b366;" vertex="1" parent="1">
          <mxGeometry x="120" y="760" width="40" height="40" as="geometry" />
        </mxCell>
        <mxCell id="F-fQVEJbsh3zWQuOM8TA-181" value="23" style="whiteSpace=wrap;html=1;aspect=fixed;" vertex="1" parent="1">
          <mxGeometry x="160" y="760" width="40" height="40" as="geometry" />
        </mxCell>
        <mxCell id="F-fQVEJbsh3zWQuOM8TA-182" value="24" style="whiteSpace=wrap;html=1;aspect=fixed;fillColor=#d5e8d4;strokeColor=#82b366;" vertex="1" parent="1">
          <mxGeometry x="200" y="760" width="40" height="40" as="geometry" />
        </mxCell>
        <mxCell id="F-fQVEJbsh3zWQuOM8TA-183" value="25" style="whiteSpace=wrap;html=1;aspect=fixed;fillColor=#dae8fc;strokeColor=#6c8ebf;" vertex="1" parent="1">
          <mxGeometry x="240" y="760" width="40" height="40" as="geometry" />
        </mxCell>
        <mxCell id="F-fQVEJbsh3zWQuOM8TA-184" value="26" style="whiteSpace=wrap;html=1;aspect=fixed;fillColor=#fff2cc;strokeColor=#d6b656;" vertex="1" parent="1">
          <mxGeometry x="280" y="760" width="40" height="40" as="geometry" />
        </mxCell>
        <mxCell id="F-fQVEJbsh3zWQuOM8TA-185" value="27" style="whiteSpace=wrap;html=1;aspect=fixed;" vertex="1" parent="1">
          <mxGeometry x="320" y="760" width="40" height="40" as="geometry" />
        </mxCell>
        <mxCell id="F-fQVEJbsh3zWQuOM8TA-186" value="28" style="whiteSpace=wrap;html=1;aspect=fixed;fillColor=#fff2cc;strokeColor=#d6b656;" vertex="1" parent="1">
          <mxGeometry x="360" y="760" width="40" height="40" as="geometry" />
        </mxCell>
        <mxCell id="F-fQVEJbsh3zWQuOM8TA-187" value="29" style="whiteSpace=wrap;html=1;aspect=fixed;" vertex="1" parent="1">
          <mxGeometry x="400" y="760" width="40" height="40" as="geometry" />
        </mxCell>
        <mxCell id="F-fQVEJbsh3zWQuOM8TA-188" value="20" style="whiteSpace=wrap;html=1;aspect=fixed;fillColor=#fff2cc;strokeColor=#d6b656;" vertex="1" parent="1">
          <mxGeometry x="40" y="760" width="40" height="40" as="geometry" />
        </mxCell>
        <mxCell id="F-fQVEJbsh3zWQuOM8TA-189" value="31" style="whiteSpace=wrap;html=1;aspect=fixed;fillColor=#dae8fc;strokeColor=#6c8ebf;" vertex="1" parent="1">
          <mxGeometry x="80" y="800" width="40" height="40" as="geometry" />
        </mxCell>
        <mxCell id="F-fQVEJbsh3zWQuOM8TA-190" value="32" style="whiteSpace=wrap;html=1;aspect=fixed;" vertex="1" parent="1">
          <mxGeometry x="120" y="800" width="40" height="40" as="geometry" />
        </mxCell>
        <mxCell id="F-fQVEJbsh3zWQuOM8TA-191" value="33" style="whiteSpace=wrap;html=1;aspect=fixed;fillColor=#f8cecc;strokeColor=#b85450;" vertex="1" parent="1">
          <mxGeometry x="160" y="800" width="40" height="40" as="geometry" />
        </mxCell>
        <mxCell id="F-fQVEJbsh3zWQuOM8TA-192" value="34" style="whiteSpace=wrap;html=1;aspect=fixed;fillColor=#f8cecc;strokeColor=#b85450;" vertex="1" parent="1">
          <mxGeometry x="200" y="800" width="40" height="40" as="geometry" />
        </mxCell>
        <mxCell id="F-fQVEJbsh3zWQuOM8TA-193" value="35" style="whiteSpace=wrap;html=1;aspect=fixed;" vertex="1" parent="1">
          <mxGeometry x="240" y="800" width="40" height="40" as="geometry" />
        </mxCell>
        <mxCell id="F-fQVEJbsh3zWQuOM8TA-194" value="36" style="whiteSpace=wrap;html=1;aspect=fixed;fillColor=#fff2cc;strokeColor=#d6b656;" vertex="1" parent="1">
          <mxGeometry x="280" y="800" width="40" height="40" as="geometry" />
        </mxCell>
        <mxCell id="F-fQVEJbsh3zWQuOM8TA-195" value="37" style="whiteSpace=wrap;html=1;aspect=fixed;fillColor=#fff2cc;strokeColor=#d6b656;" vertex="1" parent="1">
          <mxGeometry x="320" y="800" width="40" height="40" as="geometry" />
        </mxCell>
        <mxCell id="F-fQVEJbsh3zWQuOM8TA-196" value="38" style="whiteSpace=wrap;html=1;aspect=fixed;" vertex="1" parent="1">
          <mxGeometry x="360" y="800" width="40" height="40" as="geometry" />
        </mxCell>
        <mxCell id="F-fQVEJbsh3zWQuOM8TA-197" value="39" style="whiteSpace=wrap;html=1;aspect=fixed;fillColor=#fff2cc;strokeColor=#d6b656;" vertex="1" parent="1">
          <mxGeometry x="400" y="800" width="40" height="40" as="geometry" />
        </mxCell>
        <mxCell id="F-fQVEJbsh3zWQuOM8TA-198" value="30" style="whiteSpace=wrap;html=1;aspect=fixed;" vertex="1" parent="1">
          <mxGeometry x="40" y="800" width="40" height="40" as="geometry" />
        </mxCell>
        <mxCell id="F-fQVEJbsh3zWQuOM8TA-199" value="" style="whiteSpace=wrap;html=1;aspect=fixed;fillColor=#dae8fc;strokeColor=#6c8ebf;" vertex="1" parent="1">
          <mxGeometry x="40" y="880" width="40" height="40" as="geometry" />
        </mxCell>
        <mxCell id="F-fQVEJbsh3zWQuOM8TA-200" value="" style="whiteSpace=wrap;html=1;aspect=fixed;fillColor=#d5e8d4;strokeColor=#82b366;" vertex="1" parent="1">
          <mxGeometry x="110" y="880" width="40" height="40" as="geometry" />
        </mxCell>
        <mxCell id="F-fQVEJbsh3zWQuOM8TA-201" value="" style="whiteSpace=wrap;html=1;aspect=fixed;fillColor=#ffe6cc;strokeColor=#d79b00;" vertex="1" parent="1">
          <mxGeometry x="185" y="880" width="40" height="40" as="geometry" />
        </mxCell>
        <mxCell id="F-fQVEJbsh3zWQuOM8TA-202" value="" style="whiteSpace=wrap;html=1;aspect=fixed;fillColor=#f8cecc;strokeColor=#b85450;" vertex="1" parent="1">
          <mxGeometry x="260" y="880" width="40" height="40" as="geometry" />
        </mxCell>
        <mxCell id="F-fQVEJbsh3zWQuOM8TA-203" value="新生代&lt;br&gt;Eden" style="text;html=1;align=center;verticalAlign=middle;resizable=0;points=[];autosize=1;strokeColor=none;fillColor=none;" vertex="1" parent="1">
          <mxGeometry x="35" y="930" width="50" height="30" as="geometry" />
        </mxCell>
        <mxCell id="F-fQVEJbsh3zWQuOM8TA-204" value="新生代&lt;br&gt;Survivor" style="text;html=1;align=center;verticalAlign=middle;resizable=0;points=[];autosize=1;strokeColor=none;fillColor=none;" vertex="1" parent="1">
          <mxGeometry x="100" y="930" width="60" height="30" as="geometry" />
        </mxCell>
        <mxCell id="F-fQVEJbsh3zWQuOM8TA-205" value="老年代" style="text;html=1;align=center;verticalAlign=middle;resizable=0;points=[];autosize=1;strokeColor=none;fillColor=none;" vertex="1" parent="1">
          <mxGeometry x="180" y="935" width="50" height="20" as="geometry" />
        </mxCell>
        <mxCell id="F-fQVEJbsh3zWQuOM8TA-206" value="Humongous" style="text;html=1;align=center;verticalAlign=middle;resizable=0;points=[];autosize=1;" vertex="1" parent="1">
          <mxGeometry x="240" y="935" width="80" height="20" as="geometry" />
        </mxCell>
        <mxCell id="F-fQVEJbsh3zWQuOM8TA-207" value="" style="whiteSpace=wrap;html=1;aspect=fixed;" vertex="1" parent="1">
          <mxGeometry x="332.5" y="880" width="40" height="40" as="geometry" />
        </mxCell>
        <mxCell id="F-fQVEJbsh3zWQuOM8TA-208" value="未分配" style="text;html=1;align=center;verticalAlign=middle;resizable=0;points=[];autosize=1;" vertex="1" parent="1">
          <mxGeometry x="327.5" y="935" width="50" height="20" as="geometry" />
        </mxCell>
        <mxCell id="F-fQVEJbsh3zWQuOM8TA-209" value="" style="ellipse;whiteSpace=wrap;html=1;aspect=fixed;fillColor=none;strokeColor=#FF0000;" vertex="1" parent="1">
          <mxGeometry x="32.5" y="672.5" width="55" height="55" as="geometry" />
        </mxCell>
        <mxCell id="F-fQVEJbsh3zWQuOM8TA-211" value="" style="ellipse;whiteSpace=wrap;html=1;aspect=fixed;fillColor=none;strokeColor=#FF0000;" vertex="1" parent="1">
          <mxGeometry x="272.5" y="672.5" width="55" height="55" as="geometry" />
        </mxCell>
        <mxCell id="F-fQVEJbsh3zWQuOM8TA-212" value="" style="ellipse;whiteSpace=wrap;html=1;aspect=fixed;fillColor=none;strokeColor=#FF0000;" vertex="1" parent="1">
          <mxGeometry x="72.5" y="792.5" width="55" height="55" as="geometry" />
        </mxCell>
        <mxCell id="F-fQVEJbsh3zWQuOM8TA-213" value="" style="whiteSpace=wrap;html=1;aspect=fixed;fillColor=#dae8fc;strokeColor=#6c8ebf;" vertex="1" parent="1">
          <mxGeometry x="400" y="880" width="40" height="40" as="geometry" />
        </mxCell>
        <mxCell id="F-fQVEJbsh3zWQuOM8TA-214" value="" style="ellipse;whiteSpace=wrap;html=1;aspect=fixed;fillColor=none;strokeColor=#FF0000;" vertex="1" parent="1">
          <mxGeometry x="392.5" y="872.5" width="55" height="55" as="geometry" />
        </mxCell>
        <mxCell id="F-fQVEJbsh3zWQuOM8TA-215" value="被标记的&lt;br&gt;新生代Eden" style="text;html=1;align=center;verticalAlign=middle;resizable=0;points=[];autosize=1;strokeColor=none;fillColor=none;" vertex="1" parent="1">
          <mxGeometry x="380" y="930" width="80" height="30" as="geometry" />
        </mxCell>
        <mxCell id="F-fQVEJbsh3zWQuOM8TA-216" value="" style="endArrow=classic;html=1;rounded=0;strokeColor=#FF0000;" edge="1" parent="1">
          <mxGeometry width="50" height="50" relative="1" as="geometry">
            <mxPoint x="60" y="700" as="sourcePoint" />
            <mxPoint x="140" y="740" as="targetPoint" />
          </mxGeometry>
        </mxCell>
        <mxCell id="F-fQVEJbsh3zWQuOM8TA-217" value="" style="endArrow=classic;html=1;rounded=0;strokeColor=#FF0000;entryX=0.5;entryY=0.5;entryDx=0;entryDy=0;entryPerimeter=0;" edge="1" parent="1" target="F-fQVEJbsh3zWQuOM8TA-170">
          <mxGeometry width="50" height="50" relative="1" as="geometry">
            <mxPoint x="100" y="820" as="sourcePoint" />
            <mxPoint x="150" y="750" as="targetPoint" />
          </mxGeometry>
        </mxCell>
        <mxCell id="F-fQVEJbsh3zWQuOM8TA-218" value="" style="endArrow=classic;html=1;rounded=0;strokeColor=#FF0000;exitX=0.5;exitY=0.5;exitDx=0;exitDy=0;exitPerimeter=0;" edge="1" parent="1" source="F-fQVEJbsh3zWQuOM8TA-211">
          <mxGeometry width="50" height="50" relative="1" as="geometry">
            <mxPoint x="80" y="720" as="sourcePoint" />
            <mxPoint x="140" y="740" as="targetPoint" />
          </mxGeometry>
        </mxCell>
        <mxCell id="F-fQVEJbsh3zWQuOM8TA-219" value="1" style="whiteSpace=wrap;html=1;aspect=fixed;" vertex="1" parent="1">
          <mxGeometry x="80" y="1080" width="40" height="40" as="geometry" />
        </mxCell>
        <mxCell id="F-fQVEJbsh3zWQuOM8TA-220" value="2" style="whiteSpace=wrap;html=1;aspect=fixed;fillColor=#dae8fc;strokeColor=#6c8ebf;" vertex="1" parent="1">
          <mxGeometry x="120" y="1080" width="40" height="40" as="geometry" />
        </mxCell>
        <mxCell id="F-fQVEJbsh3zWQuOM8TA-221" value="3" style="whiteSpace=wrap;html=1;aspect=fixed;" vertex="1" parent="1">
          <mxGeometry x="160" y="1080" width="40" height="40" as="geometry" />
        </mxCell>
        <mxCell id="F-fQVEJbsh3zWQuOM8TA-222" value="4" style="whiteSpace=wrap;html=1;aspect=fixed;fillColor=#d5e8d4;strokeColor=#82b366;" vertex="1" parent="1">
          <mxGeometry x="200" y="1080" width="40" height="40" as="geometry" />
        </mxCell>
        <mxCell id="F-fQVEJbsh3zWQuOM8TA-223" value="5" style="whiteSpace=wrap;html=1;aspect=fixed;fillColor=#fff2cc;strokeColor=#d6b656;" vertex="1" parent="1">
          <mxGeometry x="240" y="1080" width="40" height="40" as="geometry" />
        </mxCell>
        <mxCell id="F-fQVEJbsh3zWQuOM8TA-224" value="6" style="whiteSpace=wrap;html=1;aspect=fixed;" vertex="1" parent="1">
          <mxGeometry x="280" y="1080" width="40" height="40" as="geometry" />
        </mxCell>
        <mxCell id="F-fQVEJbsh3zWQuOM8TA-225" value="7" style="whiteSpace=wrap;html=1;aspect=fixed;" vertex="1" parent="1">
          <mxGeometry x="320" y="1080" width="40" height="40" as="geometry" />
        </mxCell>
        <mxCell id="F-fQVEJbsh3zWQuOM8TA-226" value="8" style="whiteSpace=wrap;html=1;aspect=fixed;fillColor=#d5e8d4;strokeColor=#82b366;" vertex="1" parent="1">
          <mxGeometry x="360" y="1080" width="40" height="40" as="geometry" />
        </mxCell>
        <mxCell id="F-fQVEJbsh3zWQuOM8TA-227" value="9" style="whiteSpace=wrap;html=1;aspect=fixed;fillColor=#d5e8d4;strokeColor=#82b366;" vertex="1" parent="1">
          <mxGeometry x="400" y="1080" width="40" height="40" as="geometry" />
        </mxCell>
        <mxCell id="F-fQVEJbsh3zWQuOM8TA-228" value="10" style="whiteSpace=wrap;html=1;aspect=fixed;" vertex="1" parent="1">
          <mxGeometry x="40" y="1120" width="40" height="40" as="geometry" />
        </mxCell>
        <mxCell id="F-fQVEJbsh3zWQuOM8TA-229" value="11" style="whiteSpace=wrap;html=1;aspect=fixed;fillColor=#dae8fc;strokeColor=#6c8ebf;" vertex="1" parent="1">
          <mxGeometry x="80" y="1120" width="40" height="40" as="geometry" />
        </mxCell>
        <mxCell id="F-fQVEJbsh3zWQuOM8TA-230" value="12" style="whiteSpace=wrap;html=1;aspect=fixed;fillColor=#d5e8d4;strokeColor=#82b366;" vertex="1" parent="1">
          <mxGeometry x="120" y="1120" width="40" height="40" as="geometry" />
        </mxCell>
        <mxCell id="F-fQVEJbsh3zWQuOM8TA-231" value="13" style="whiteSpace=wrap;html=1;aspect=fixed;fillColor=#dae8fc;strokeColor=#6c8ebf;" vertex="1" parent="1">
          <mxGeometry x="160" y="1120" width="40" height="40" as="geometry" />
        </mxCell>
        <mxCell id="F-fQVEJbsh3zWQuOM8TA-232" value="14" style="whiteSpace=wrap;html=1;aspect=fixed;fillColor=#dae8fc;strokeColor=#6c8ebf;" vertex="1" parent="1">
          <mxGeometry x="200" y="1120" width="40" height="40" as="geometry" />
        </mxCell>
        <mxCell id="F-fQVEJbsh3zWQuOM8TA-233" value="15" style="whiteSpace=wrap;html=1;aspect=fixed;fillColor=#f8cecc;strokeColor=#b85450;" vertex="1" parent="1">
          <mxGeometry x="240" y="1120" width="40" height="40" as="geometry" />
        </mxCell>
        <mxCell id="F-fQVEJbsh3zWQuOM8TA-234" value="16" style="whiteSpace=wrap;html=1;aspect=fixed;fillColor=#f8cecc;strokeColor=#b85450;" vertex="1" parent="1">
          <mxGeometry x="280" y="1120" width="40" height="40" as="geometry" />
        </mxCell>
        <mxCell id="F-fQVEJbsh3zWQuOM8TA-235" value="0" style="whiteSpace=wrap;html=1;aspect=fixed;" vertex="1" parent="1">
          <mxGeometry x="40" y="1080" width="40" height="40" as="geometry" />
        </mxCell>
        <mxCell id="F-fQVEJbsh3zWQuOM8TA-236" value="17" style="whiteSpace=wrap;html=1;aspect=fixed;fillColor=#f8cecc;strokeColor=#b85450;" vertex="1" parent="1">
          <mxGeometry x="320" y="1120" width="40" height="40" as="geometry" />
        </mxCell>
        <mxCell id="F-fQVEJbsh3zWQuOM8TA-237" value="18" style="whiteSpace=wrap;html=1;aspect=fixed;" vertex="1" parent="1">
          <mxGeometry x="360" y="1120" width="40" height="40" as="geometry" />
        </mxCell>
        <mxCell id="F-fQVEJbsh3zWQuOM8TA-238" value="19" style="whiteSpace=wrap;html=1;aspect=fixed;" vertex="1" parent="1">
          <mxGeometry x="400" y="1120" width="40" height="40" as="geometry" />
        </mxCell>
        <mxCell id="F-fQVEJbsh3zWQuOM8TA-239" value="21" style="whiteSpace=wrap;html=1;aspect=fixed;fillColor=#dae8fc;strokeColor=#6c8ebf;" vertex="1" parent="1">
          <mxGeometry x="80" y="1160" width="40" height="40" as="geometry" />
        </mxCell>
        <mxCell id="F-fQVEJbsh3zWQuOM8TA-240" value="22" style="whiteSpace=wrap;html=1;aspect=fixed;fillColor=#d5e8d4;strokeColor=#82b366;" vertex="1" parent="1">
          <mxGeometry x="120" y="1160" width="40" height="40" as="geometry" />
        </mxCell>
        <mxCell id="F-fQVEJbsh3zWQuOM8TA-241" value="23" style="whiteSpace=wrap;html=1;aspect=fixed;" vertex="1" parent="1">
          <mxGeometry x="160" y="1160" width="40" height="40" as="geometry" />
        </mxCell>
        <mxCell id="F-fQVEJbsh3zWQuOM8TA-242" value="24" style="whiteSpace=wrap;html=1;aspect=fixed;fillColor=#d5e8d4;strokeColor=#82b366;" vertex="1" parent="1">
          <mxGeometry x="200" y="1160" width="40" height="40" as="geometry" />
        </mxCell>
        <mxCell id="F-fQVEJbsh3zWQuOM8TA-243" value="25" style="whiteSpace=wrap;html=1;aspect=fixed;fillColor=#dae8fc;strokeColor=#6c8ebf;" vertex="1" parent="1">
          <mxGeometry x="240" y="1160" width="40" height="40" as="geometry" />
        </mxCell>
        <mxCell id="F-fQVEJbsh3zWQuOM8TA-244" value="26" style="whiteSpace=wrap;html=1;aspect=fixed;fillColor=#fff2cc;strokeColor=#d6b656;" vertex="1" parent="1">
          <mxGeometry x="280" y="1160" width="40" height="40" as="geometry" />
        </mxCell>
        <mxCell id="F-fQVEJbsh3zWQuOM8TA-245" value="27" style="whiteSpace=wrap;html=1;aspect=fixed;" vertex="1" parent="1">
          <mxGeometry x="320" y="1160" width="40" height="40" as="geometry" />
        </mxCell>
        <mxCell id="F-fQVEJbsh3zWQuOM8TA-246" value="28" style="whiteSpace=wrap;html=1;aspect=fixed;fillColor=#fff2cc;strokeColor=#d6b656;" vertex="1" parent="1">
          <mxGeometry x="360" y="1160" width="40" height="40" as="geometry" />
        </mxCell>
        <mxCell id="F-fQVEJbsh3zWQuOM8TA-247" value="29" style="whiteSpace=wrap;html=1;aspect=fixed;" vertex="1" parent="1">
          <mxGeometry x="400" y="1160" width="40" height="40" as="geometry" />
        </mxCell>
        <mxCell id="F-fQVEJbsh3zWQuOM8TA-248" value="20" style="whiteSpace=wrap;html=1;aspect=fixed;fillColor=#fff2cc;strokeColor=#d6b656;" vertex="1" parent="1">
          <mxGeometry x="40" y="1160" width="40" height="40" as="geometry" />
        </mxCell>
        <mxCell id="F-fQVEJbsh3zWQuOM8TA-249" value="31" style="whiteSpace=wrap;html=1;aspect=fixed;" vertex="1" parent="1">
          <mxGeometry x="80" y="1200" width="40" height="40" as="geometry" />
        </mxCell>
        <mxCell id="F-fQVEJbsh3zWQuOM8TA-250" value="32" style="whiteSpace=wrap;html=1;aspect=fixed;" vertex="1" parent="1">
          <mxGeometry x="120" y="1200" width="40" height="40" as="geometry" />
        </mxCell>
        <mxCell id="F-fQVEJbsh3zWQuOM8TA-251" value="33" style="whiteSpace=wrap;html=1;aspect=fixed;fillColor=#f8cecc;strokeColor=#b85450;" vertex="1" parent="1">
          <mxGeometry x="160" y="1200" width="40" height="40" as="geometry" />
        </mxCell>
        <mxCell id="F-fQVEJbsh3zWQuOM8TA-252" value="34" style="whiteSpace=wrap;html=1;aspect=fixed;fillColor=#f8cecc;strokeColor=#b85450;" vertex="1" parent="1">
          <mxGeometry x="200" y="1200" width="40" height="40" as="geometry" />
        </mxCell>
        <mxCell id="F-fQVEJbsh3zWQuOM8TA-253" value="35" style="whiteSpace=wrap;html=1;aspect=fixed;" vertex="1" parent="1">
          <mxGeometry x="240" y="1200" width="40" height="40" as="geometry" />
        </mxCell>
        <mxCell id="F-fQVEJbsh3zWQuOM8TA-254" value="36" style="whiteSpace=wrap;html=1;aspect=fixed;fillColor=#fff2cc;strokeColor=#d6b656;" vertex="1" parent="1">
          <mxGeometry x="280" y="1200" width="40" height="40" as="geometry" />
        </mxCell>
        <mxCell id="F-fQVEJbsh3zWQuOM8TA-255" value="37" style="whiteSpace=wrap;html=1;aspect=fixed;fillColor=#fff2cc;strokeColor=#d6b656;" vertex="1" parent="1">
          <mxGeometry x="320" y="1200" width="40" height="40" as="geometry" />
        </mxCell>
        <mxCell id="F-fQVEJbsh3zWQuOM8TA-256" value="38" style="whiteSpace=wrap;html=1;aspect=fixed;" vertex="1" parent="1">
          <mxGeometry x="360" y="1200" width="40" height="40" as="geometry" />
        </mxCell>
        <mxCell id="F-fQVEJbsh3zWQuOM8TA-257" value="39" style="whiteSpace=wrap;html=1;aspect=fixed;fillColor=#fff2cc;strokeColor=#d6b656;" vertex="1" parent="1">
          <mxGeometry x="400" y="1200" width="40" height="40" as="geometry" />
        </mxCell>
        <mxCell id="F-fQVEJbsh3zWQuOM8TA-258" value="30" style="whiteSpace=wrap;html=1;aspect=fixed;" vertex="1" parent="1">
          <mxGeometry x="40" y="1200" width="40" height="40" as="geometry" />
        </mxCell>
        <mxCell id="F-fQVEJbsh3zWQuOM8TA-269" value="&lt;font style=&quot;font-size: 17px&quot;&gt;回收前：&lt;/font&gt;" style="text;html=1;align=center;verticalAlign=middle;resizable=0;points=[];autosize=1;strokeColor=none;fillColor=none;" vertex="1" parent="1">
          <mxGeometry x="40" y="640" width="80" height="20" as="geometry" />
        </mxCell>
        <mxCell id="F-fQVEJbsh3zWQuOM8TA-270" value="&lt;span style=&quot;color: rgb(0 , 0 , 0) ; font-family: &amp;#34;helvetica&amp;#34; ; font-size: 17px ; font-style: normal ; font-weight: 400 ; letter-spacing: normal ; text-align: center ; text-indent: 0px ; text-transform: none ; word-spacing: 0px ; background-color: rgb(248 , 249 , 250) ; display: inline ; float: none&quot;&gt;回收后：&lt;/span&gt;" style="text;whiteSpace=wrap;html=1;fontSize=17;" vertex="1" parent="1">
          <mxGeometry x="40" y="1040" width="90" height="40" as="geometry" />
        </mxCell>
        <mxCell id="F-fQVEJbsh3zWQuOM8TA-271" value="" style="whiteSpace=wrap;html=1;aspect=fixed;fillColor=#dae8fc;strokeColor=#6c8ebf;" vertex="1" parent="1">
          <mxGeometry x="40" y="1279.5" width="40" height="40" as="geometry" />
        </mxCell>
        <mxCell id="F-fQVEJbsh3zWQuOM8TA-272" value="" style="whiteSpace=wrap;html=1;aspect=fixed;fillColor=#d5e8d4;strokeColor=#82b366;" vertex="1" parent="1">
          <mxGeometry x="110" y="1279.5" width="40" height="40" as="geometry" />
        </mxCell>
        <mxCell id="F-fQVEJbsh3zWQuOM8TA-273" value="" style="whiteSpace=wrap;html=1;aspect=fixed;fillColor=#ffe6cc;strokeColor=#d79b00;" vertex="1" parent="1">
          <mxGeometry x="185" y="1279.5" width="40" height="40" as="geometry" />
        </mxCell>
        <mxCell id="F-fQVEJbsh3zWQuOM8TA-274" value="" style="whiteSpace=wrap;html=1;aspect=fixed;fillColor=#f8cecc;strokeColor=#b85450;" vertex="1" parent="1">
          <mxGeometry x="260" y="1279.5" width="40" height="40" as="geometry" />
        </mxCell>
        <mxCell id="F-fQVEJbsh3zWQuOM8TA-275" value="新生代&lt;br&gt;Eden" style="text;html=1;align=center;verticalAlign=middle;resizable=0;points=[];autosize=1;strokeColor=none;fillColor=none;" vertex="1" parent="1">
          <mxGeometry x="35" y="1329.5" width="50" height="30" as="geometry" />
        </mxCell>
        <mxCell id="F-fQVEJbsh3zWQuOM8TA-276" value="新生代&lt;br&gt;Survivor" style="text;html=1;align=center;verticalAlign=middle;resizable=0;points=[];autosize=1;strokeColor=none;fillColor=none;" vertex="1" parent="1">
          <mxGeometry x="100" y="1329.5" width="60" height="30" as="geometry" />
        </mxCell>
        <mxCell id="F-fQVEJbsh3zWQuOM8TA-277" value="老年代" style="text;html=1;align=center;verticalAlign=middle;resizable=0;points=[];autosize=1;strokeColor=none;fillColor=none;" vertex="1" parent="1">
          <mxGeometry x="180" y="1334.5" width="50" height="20" as="geometry" />
        </mxCell>
        <mxCell id="F-fQVEJbsh3zWQuOM8TA-278" value="Humongous" style="text;html=1;align=center;verticalAlign=middle;resizable=0;points=[];autosize=1;" vertex="1" parent="1">
          <mxGeometry x="240" y="1334.5" width="80" height="20" as="geometry" />
        </mxCell>
        <mxCell id="F-fQVEJbsh3zWQuOM8TA-279" value="" style="whiteSpace=wrap;html=1;aspect=fixed;" vertex="1" parent="1">
          <mxGeometry x="332.5" y="1279.5" width="40" height="40" as="geometry" />
        </mxCell>
        <mxCell id="F-fQVEJbsh3zWQuOM8TA-280" value="未分配" style="text;html=1;align=center;verticalAlign=middle;resizable=0;points=[];autosize=1;" vertex="1" parent="1">
          <mxGeometry x="327.5" y="1334.5" width="50" height="20" as="geometry" />
        </mxCell>
        <mxCell id="F-fQVEJbsh3zWQuOM8TA-281" value="" style="whiteSpace=wrap;html=1;aspect=fixed;fillColor=#d5e8d4;strokeColor=#82b366;" vertex="1" parent="1">
          <mxGeometry x="400" y="1279.5" width="40" height="40" as="geometry" />
        </mxCell>
        <mxCell id="F-fQVEJbsh3zWQuOM8TA-282" value="" style="ellipse;whiteSpace=wrap;html=1;aspect=fixed;fillColor=none;strokeColor=#FF0000;" vertex="1" parent="1">
          <mxGeometry x="392.5" y="1272" width="55" height="55" as="geometry" />
        </mxCell>
        <mxCell id="F-fQVEJbsh3zWQuOM8TA-283" value="新分配的&lt;br&gt;新生代Survivor" style="text;html=1;align=center;verticalAlign=middle;resizable=0;points=[];autosize=1;strokeColor=none;fillColor=none;" vertex="1" parent="1">
          <mxGeometry x="370" y="1329.5" width="100" height="30" as="geometry" />
        </mxCell>
        <mxCell id="F-fQVEJbsh3zWQuOM8TA-284" value="" style="ellipse;whiteSpace=wrap;html=1;aspect=fixed;fillColor=none;strokeColor=#FF0000;" vertex="1" parent="1">
          <mxGeometry x="112.5" y="1112.5" width="55" height="55" as="geometry" />
        </mxCell>
        <mxCell id="F-fQVEJbsh3zWQuOM8TA-285" value="" style="shape=flexArrow;endArrow=classic;html=1;rounded=0;fontSize=17;strokeColor=#666666;fillColor=#f5f5f5;" edge="1" parent="1">
          <mxGeometry width="50" height="50" relative="1" as="geometry">
            <mxPoint x="239" y="980" as="sourcePoint" />
            <mxPoint x="239.41" y="1040" as="targetPoint" />
          </mxGeometry>
        </mxCell>
      </root>
    </mxGraphModel>
  </diagram>
</mxfile>
